<svg viewBox="0 0 1200 630" xmlns="http://www.w3.org/2000/svg">
  <defs>
    <linearGradient id="bg-grad" x1="0%" y1="0%" x2="100%" y2="100%">
      <stop offset="0%" stop-color="#0f172a"/>
      <stop offset="100%" stop-color="#1e1b4b"/>
    </linearGradient>
    <linearGradient id="primary" x1="0%" y1="0%" x2="100%" y2="100%">
      <stop offset="0%" stop-color="#00d4ff"/>
      <stop offset="100%" stop-color="#00d4ff" stop-opacity="0.8"/>
    </linearGradient>
    <linearGradient id="secondary" x1="0%" y1="0%" x2="100%" y2="100%">
      <stop offset="0%" stop-color="#8b5cf6"/>
      <stop offset="100%" stop-color="#8b5cf6" stop-opacity="0.7"/>
    </linearGradient>
    <linearGradient id="tertiary" x1="0%" y1="0%" x2="100%" y2="100%">
      <stop offset="0%" stop-color="#10b981"/>
      <stop offset="100%" stop-color="#10b981" stop-opacity="0.8"/>
    </linearGradient>
    <linearGradient id="text-grad" x1="0%" y1="0%" x2="100%" y2="100%">
      <stop offset="0%" stop-color="#00d4ff"/>
      <stop offset="50%" stop-color="#8b5cf6"/>
      <stop offset="100%" stop-color="#10b981"/>
    </linearGradient>
    <filter id="glow" x="-50%" y="-50%" width="200%" height="200%">
      <feGaussianBlur stdDeviation="4" result="coloredBlur"/>
      <feMerge>
        <feMergeNode in="coloredBlur"/>
        <feMergeNode in="SourceGraphic"/>
      </feMerge>
    </filter>
    <filter id="text-glow" x="-20%" y="-20%" width="140%" height="140%">
      <feGaussianBlur stdDeviation="2" result="coloredBlur"/>
      <feMerge>
        <feMergeNode in="coloredBlur"/>
        <feMergeNode in="SourceGraphic"/>
      </feMerge>
    </filter>
  </defs>
  
  <!-- Background -->
  <rect width="1200" height="630" fill="url(#bg-grad)"/>
  
  <!-- Grid pattern -->
  <g opacity="0.05" stroke="#00d4ff" stroke-width="1">
    <line x1="0" y1="0" x2="1200" y2="630"/>
    <line x1="1200" y1="0" x2="0" y2="630"/>
    <line x1="600" y1="0" x2="600" y2="630"/>
    <line x1="0" y1="315" x2="1200" y2="315"/>
  </g>
  
  <!-- Logo centered -->
  <g transform="translate(230, 155) scale(2.5)" filter="url(#glow)">
    <!-- C traces -->
    <path d="M18 20H42" stroke="url(#primary)" stroke-width="3" stroke-linecap="round"/>
    <path d="M42 20V26L48 32" stroke="url(#primary)" stroke-width="3" stroke-linecap="round" stroke-linejoin="round"/>
    <path d="M18 20V48V76" stroke="url(#primary)" stroke-width="3" stroke-linecap="round"/>
    <path d="M18 76H42" stroke="url(#primary)" stroke-width="3" stroke-linecap="round"/>
    <path d="M42 76V70L48 64" stroke="url(#primary)" stroke-width="3" stroke-linecap="round" stroke-linejoin="round"/>
    <path d="M18 48H30L36 42" stroke="url(#primary)" stroke-width="2.5" stroke-linecap="round" stroke-linejoin="round"/>
    <path d="M30 48L36 54" stroke="url(#primary)" stroke-width="2.5" stroke-linecap="round" stroke-linejoin="round"/>
    
    <!-- G traces -->
    <path d="M72 20H102" stroke="url(#primary)" stroke-width="3" stroke-linecap="round"/>
    <path d="M72 20V26L66 32" stroke="url(#primary)" stroke-width="3" stroke-linecap="round" stroke-linejoin="round"/>
    <path d="M102 20V44" stroke="url(#primary)" stroke-width="3" stroke-linecap="round"/>
    <path d="M72 76H102" stroke="url(#primary)" stroke-width="3" stroke-linecap="round"/>
    <path d="M72 76V70L66 64" stroke="url(#primary)" stroke-width="3" stroke-linecap="round" stroke-linejoin="round"/>
    <path d="M102 76V52" stroke="url(#primary)" stroke-width="3" stroke-linecap="round"/>
    <path d="M102 48H84L78 42" stroke="url(#primary)" stroke-width="3" stroke-linecap="round" stroke-linejoin="round"/>
    <path d="M84 48L78 54" stroke="url(#primary)" stroke-width="2.5" stroke-linecap="round" stroke-linejoin="round"/>
    
    <!-- Accent traces -->
    <path d="M24 28H32L38 34" stroke="url(#secondary)" stroke-width="2" stroke-linecap="round" stroke-linejoin="round" stroke-opacity="0.7"/>
    <path d="M24 68H32L38 62" stroke="url(#secondary)" stroke-width="2" stroke-linecap="round" stroke-linejoin="round" stroke-opacity="0.7"/>
    <path d="M96 28H88L82 34" stroke="url(#secondary)" stroke-width="2" stroke-linecap="round" stroke-linejoin="round" stroke-opacity="0.7"/>
    <path d="M96 68H88L82 62" stroke="url(#secondary)" stroke-width="2" stroke-linecap="round" stroke-linejoin="round" stroke-opacity="0.7"/>
    
    <!-- Connection traces -->
    <path d="M54 38H60L66 32" stroke="url(#tertiary)" stroke-width="2" stroke-linecap="round" stroke-linejoin="round" stroke-opacity="0.6"/>
    <path d="M54 58H60L66 64" stroke="url(#tertiary)" stroke-width="2" stroke-linecap="round" stroke-linejoin="round" stroke-opacity="0.6"/>
    
    <!-- Main nodes -->
    <circle cx="18" cy="20" r="4" fill="url(#primary)"/>
    <circle cx="42" cy="20" r="3.5" fill="url(#primary)"/>
    <circle cx="48" cy="32" r="3" fill="url(#primary)"/>
    <circle cx="18" cy="48" r="4" fill="url(#primary)"/>
    <circle cx="18" cy="76" r="4" fill="url(#primary)"/>
    <circle cx="42" cy="76" r="3.5" fill="url(#primary)"/>
    <circle cx="48" cy="64" r="3" fill="url(#primary)"/>
    <circle cx="72" cy="20" r="3.5" fill="url(#primary)"/>
    <circle cx="102" cy="20" r="4" fill="url(#primary)"/>
    <circle cx="66" cy="32" r="3" fill="url(#primary)"/>
    <circle cx="102" cy="48" r="4" fill="url(#primary)"/>
    <circle cx="72" cy="76" r="3.5" fill="url(#primary)"/>
    <circle cx="102" cy="76" r="4" fill="url(#primary)"/>
    <circle cx="66" cy="64" r="3" fill="url(#primary)"/>
    
    <!-- Center hub -->
    <circle cx="60" cy="48" r="6" fill="url(#tertiary)"/>
    <circle cx="60" cy="48" r="3" fill="#fff" fill-opacity="0.5"/>
  </g>
  
  <!-- Text -->
  <g filter="url(#text-glow)">
    <text x="600" y="500" text-anchor="middle" font-family="system-ui, -apple-system, sans-serif" font-size="72" font-weight="700" fill="url(#text-grad)">CGraph</text>
    <text x="600" y="560" text-anchor="middle" font-family="system-ui, -apple-system, sans-serif" font-size="24" fill="#94a3b8">Secure • Connected • Decentralized</text>
  </g>
</svg>
